<svg width="25" height="25" viewBox="0 0 25 25" fill="none" xmlns="http://www.w3.org/2000/svg">
<path d="M20.8332 10.4163C20.8332 15.6174 15.0634 21.034 13.1259 22.707C12.9454 22.8427 12.7257 22.9161 12.4998 22.9161C12.274 22.9161 12.0543 22.8427 11.8738 22.707C9.9363 21.034 4.1665 15.6174 4.1665 10.4163C4.1665 8.2062 5.04448 6.08659 6.60728 4.52378C8.17008 2.96098 10.2897 2.08301 12.4998 2.08301C14.71 2.08301 16.8296 2.96098 18.3924 4.52378C19.9552 6.08659 20.8332 8.2062 20.8332 10.4163Z" stroke="#818898" stroke-width="1.33333" stroke-linecap="round" stroke-linejoin="round"/>
<path d="M12.5 13.542C14.2259 13.542 15.625 12.1429 15.625 10.417C15.625 8.6911 14.2259 7.29199 12.5 7.29199C10.7741 7.29199 9.375 8.6911 9.375 10.417C9.375 12.1429 10.7741 13.542 12.5 13.542Z" stroke="#818898" stroke-width="1.33333" stroke-linecap="round" stroke-linejoin="round"/>
</svg>
